#!OML:ASF F:\VICON\USERDATA\INSTALL\rory7\rory7.ASF
:FULLY-SPECIFIED
:DEGREES
2097
root -2.94514 18.1753 -1.37301 -177.525 -72.6999 175.229
lowerback 14.1766 6.42601 3.24082
upperback 1.28336 8.83928 -1.43613
thorax -5.79314 4.20846 -4.93839
lowerneck -11.4517 8.59807 1.42856
upperneck 4.66061 11.4608 -2.54373
head 3.80592 5.57296 -0.28825
rclavicle -4.08751e-014 4.37326e-015
rhumerus -0.0689764 -15.4429 -15.3246
rradius 110.492
rwrist -23.7841
rhand -36.2153 4.67466
rfingers 7.12502
rthumb -9.31757 -25.0994
lclavicle -4.08751e-014 4.37326e-015
lhumerus -38.2348 2.75217 47.7682
lradius 85.9764
lwrist 23.3809
lhand -20.1707 19.4524
lfingers 7.12502
lthumb 6.17502 49.3424
rfemur 3.71374 11.7069 20.6385
rtibia 29.154
rfoot -29.2475 -17.0958
rtoes -4.67246
lfemur -16.2051 9.39374 -22.6365
ltibia 47.3108
lfoot -22.3999 1.45596
ltoes -12.7157
2098
root -2.97077 18.1598 -1.41974 -177.878 -72.7298 175.55
lowerback 14.2583 6.49626 2.99415
upperback 1.29132 8.89734 -1.381
thorax -5.87042 4.23898 -4.76826
lowerneck -11.4706 8.5464 1.27559
upperneck 4.36995 11.3878 -2.36128
head 3.68074 5.54567 -0.217621
rclavicle -3.98936e-014 1.40143e-014
rhumerus -1.79769 -15.0676 -15.8303
rradius 111.364
rwrist -23.3146
rhand -37.1238 2.92156
rfingers 7.12502
rthumb -10.1941 -26.8115
lclavicle -3.98936e-014 1.40143e-014
lhumerus -39.3823 2.47367 49.206
lradius 85.0939
lwrist 22.4324
lhand -20.1712 19.1087
lfingers 7.12502
lthumb 6.17453 48.9987
rfemur 3.75943 11.2527 20.7753
rtibia 29.4046
rfoot -29.2879 -16.8645
rtoes -5.30152
lfemur -16.0499 10.2938 -23.1392
ltibia 46.7941
lfoot -22.5105 0.833652
ltoes -13.0225
2099
root -2.99436 18.1377 -1.46542 -178.254 -72.7884 175.856
lowerback 14.3916 6.53911 2.73205
upperback 1.30817 8.91673 -1.31865
thorax -5.97402 4.24966 -4.58257
lowerneck -11.536 8.51701 1.14906
upperneck 4.09689 11.3419 -2.18592
head 3.57448 5.5309 -0.149092
rclavicle -1.56704e-013 1.63997e-014
rhumerus -3.45999 -14.6478 -16.3363
rradius 112.204
rwrist -22.7418
rhand -38.5834 -0.414518
rfingers 7.12502
rthumb -11.6019 -30.0734
lclavicle -1.56704e-013 1.63997e-014
lhumerus -40.4925 2.38395 50.573
lradius 84.1312
lwrist 21.5044
lhand -20.1928 18.682
lfingers 7.12502
lthumb 6.15366 48.5726
rfemur 3.84918 10.8538 20.9442
rtibia 29.6467
rfoot -29.3901 -16.6266
rtoes -5.69408
lfemur -15.7845 11.2743 -23.5874
ltibia 46.163
lfoot -22.4442 0.104036
ltoes -11.6169
2100
root -3.02174 18.118 -1.50321 -178.693 -72.8919 176.306
lowerback 14.4426 6.58616 2.65688
upperback 1.31378 8.96674 -1.31789
thorax -6.00329 4.2742 -4.55632
lowerneck -11.7261 8.44821 1.126
upperneck 3.94482 11.2347 -2.05287
head 3.54478 5.48268 -0.105733
rclavicle -7.32708e-014 1.68967e-015
rhumerus -5.26931 -14.4247 -16.7009
rradius 112.978
rwrist -22.5486
rhand -39.0547 -1.1363
rfingers 7.12502
rthumb -12.0564 -30.769
lclavicle -7.32708e-014 1.68967e-015
lhumerus -41.3885 2.3612 51.9178
lradius 83.1119
lwrist 20.4444
lhand -20.2101 18.3455
lfingers 7.12502
lthumb 6.13694 48.2366
rfemur 3.89719 10.7115 21.193
rtibia 29.8631
rfoot -29.5238 -16.5299
rtoes -6.06528
lfemur -15.5579 12.0671 -24.0214
ltibia 45.4659
lfoot -22.3447 -0.229749
ltoes -8.09125
2101
root -3.05352 18.106 -1.539 -179.241 -72.9706 176.825
lowerback 14.4794 6.62459 2.62905
upperback 1.37023 9.01044 -1.30955
thorax -5.96497 4.2972 -4.53993
lowerneck -11.8002 8.38278 1.12604
upperneck 3.67608 11.1376 -2.07044
head 3.46405 5.43511 -0.122625
rclavicle 4.13596e-014 -1.38155e-014
rhumerus -6.98583 -14.3103 -17.14
rradius 113.672
rwrist -22.5147
rhand -38.9225 0.33829
rfingers 7.12502
rthumb -11.9289 -29.3018
lclavicle 4.13596e-014 -1.38155e-014
lhumerus -42.1584 2.4922 53.203
lradius 82.0681
lwrist 19.4718
lhand -20.223 18.1982
lfingers 7.12502
lthumb 6.12452 48.0897
rfemur 3.9687 10.3599 21.3337
rtibia 30.0689
rfoot -29.6208 -16.1023
rtoes -6.55732
lfemur -15.2509 12.5944 -24.4094
ltibia 44.7405
lfoot -22.5195 0.28998
ltoes -4.33231
2102
root -3.08638 18.0982 -1.57609 -179.935 -73.1225 177.513
lowerback 14.502 6.59036 2.59963
upperback 1.41405 8.95977 -1.28129
thorax -5.94411 4.27359 -4.48528
lowerneck -11.8139 8.39186 1.1264
upperneck 3.33998 11.1379 -2.08326
head 3.3493 5.43712 -0.135957
rclavicle 1.03946e-013 -1.06598e-014
rhumerus -8.53609 -14.1472 -17.7701
rradius 114.278
rwrist -22.3958
rhand -39.2161 0.761331
rfingers 7.12502
rthumb -12.2121 -28.8622
lclavicle 1.03946e-013 -1.06598e-014
lhumerus -42.9178 2.68496 54.2846
lradius 80.9478
lwrist 18.6248
lhand -20.2141 18.0961
lfingers 7.12502
lthumb 6.13316 47.9874
rfemur 4.01581 9.78063 21.4481
rtibia 30.2593
rfoot -29.7176 -15.2724
rtoes -6.10555
lfemur -14.9242 13.0263 -24.668
ltibia 44.0194
lfoot -22.9716 2.09261
ltoes -1.22436
2103
root -3.12024 18.0914 -1.61226 -180.496 -73.3139 178.138
lowerback 14.4524 6.57924 2.48646
upperback 1.42347 8.92698 -1.26174
thorax -5.93022 4.26091 -4.39106
lowerneck -11.7733 8.3777 1.23094
upperneck 2.94084 11.0958 -2.17642
head 3.21456 5.41703 -0.198949
rclavicle 6.3309e-014 -1.77695e-014
rhumerus -10.1491 -14.0286 -18.33
rradius 114.809
rwrist -22.3547
rhand -39.1254 0.591268
rfingers 7.12502
rthumb -12.1245 -29.0374
lclavicle 6.3309e-014 -1.77695e-014
lhumerus -43.5796 2.79515 55.3332
lradius 79.7431
lwrist 17.6939
lhand -20.4422 17.9363
lfingers 7.12502
lthumb 5.91288 47.8338
rfemur 4.01229 9.30844 21.5664
rtibia 30.4466
rfoot -29.7473 -14.452
rtoes -5.17265
lfemur -14.6317 13.4193 -24.871
ltibia 43.3056
lfoot -23.7192 4.93687
ltoes 2.20213
2104
root -3.15531 18.0843 -1.64447 -180.867 -73.4757 178.632
lowerback 14.3212 6.57572 2.28842
upperback 1.43028 8.89302 -1.21026
thorax -5.8925 4.25133 -4.20718
lowerneck -11.7025 8.35482 1.43823
upperneck 2.56206 11.0446 -2.52091
head 3.10597 5.38279 -0.359218
rclavicle -6.61021e-014 1.38652e-014
rhumerus -11.6265 -13.9937 -18.8006
rradius 115.295
rwrist -22.5881
rhand -37.8256 1.70166
rfingers 7.12502
rthumb -10.8711 -27.997
lclavicle -6.61021e-014 1.38652e-014
lhumerus -44.2415 3.05859 56.4428
lradius 78.5566
lwrist 17.0235
lhand -21.0027 17.9867
lfingers 7.12502
lthumb 5.37175 47.8986
rfemur 3.92145 8.96222 21.6376
rtibia 30.6876
rfoot -29.6242 -13.719
rtoes -4.85432
lfemur -14.3746 13.5056 -25.0705
ltibia 42.594
lfoot -24.6901 7.86337
ltoes 5.50385
2105
root -3.18746 18.0764 -1.67561 -181.326 -73.6169 179.157
lowerback 14.3318 6.53205 2.15443
upperback 1.42749 8.81633 -1.17483
thorax -5.93332 4.21534 -4.08716
lowerneck -11.686 8.35276 1.488
upperneck 2.23823 11.0337 -2.71176
head 3.00675 5.37213 -0.438009
rclavicle -2.83268e-015 5.31749e-015
rhumerus -12.9768 -13.9345 -19.3974
rradius 115.765
rwrist -22.797
rhand -36.9323 2.84553
rfingers 7.12502
rthumb -10.0093 -26.8965
lclavicle -2.83268e-015 5.31749e-015
lhumerus -44.8498 3.3107 57.4686
lradius 77.3061
lwrist 16.8207
lhand -21.5923 18.0059
lfingers 7.12502
lthumb 4.80244 47.9315
rfemur 3.83565 8.63883 21.7518
rtibia 31.0357
rfoot -29.2515 -13.2123
rtoes -4.92858
lfemur -14.0389 13.2265 -25.1877
ltibia 41.8894
lfoot -25.6098 9.67604
ltoes 9.20828
2106
root -3.21794 18.0662 -1.70597 -181.783 -73.7724 179.569
lowerback 14.4481 6.47541 2.06235
upperback 1.47343 8.72532 -1.15775
thorax -5.97143 4.17031 -4.01574
lowerneck -11.5373 8.34603 1.34848
upperneck 1.72729 11.029 -2.77113
head 2.79728 5.3714 -0.454934
rclavicle 1.08661e-013 -1.36167e-014
rhumerus -14.265 -13.803 -19.9975
rradius 116.114
rwrist -22.4806
rhand -37.4269 3.22861
rfingers 7.12502
rthumb -10.4865 -26.4898
lclavicle 1.08661e-013 -1.36167e-014
lhumerus -45.2651 3.4646 58.4532
lradius 75.9008
lwrist 16.5459
lhand -22.1191 18.0229
lfingers 7.12502
lthumb 4.29378 47.9594
rfemur 3.7668 8.19382 21.8071
rtibia 31.5513
rfoot -28.8495 -12.6792
rtoes -5.44886
lfemur -13.5859 12.889 -25.248
ltibia 41.2144
lfoot -26.2489 10.0391
ltoes 13.4811
2107
root -3.24861 18.0566 -1.73498 -182.227 -73.9196 179.925
lowerback 14.5307 6.40975 1.86421
upperback 1.58329 8.60895 -1.04271
thorax -5.95553 4.11789 -3.77068
lowerneck -11.4341 8.39767 1.1357
upperneck 1.27806 11.1171 -2.92534
head 2.62235 5.41178 -0.480111
rclavicle -9.49818e-014 2.39039e-014
rhumerus -15.2892 -13.7212 -20.4906
rradius 116.335
rwrist -22.3246
rhand -37.7198 3.48977
rfingers 7.12502
rthumb -10.769 -26.2142
lclavicle -9.49818e-014 2.39039e-014
lhumerus -45.6927 3.91945 59.4568
lradius 74.5266
lwrist 15.7909
lhand -22.1474 18.8085
lfingers 7.12502
lthumb 4.26647 48.7455
rfemur 3.59752 7.68496 21.7568
rtibia 32.2964
rfoot -28.9049 -11.5367
rtoes -6.73313
lfemur -13.0876 12.4618 -25.2499
ltibia 40.6252
lfoot -26.7505 10.2548
ltoes 16.179
